<svg width="1440" height="1024" viewBox="0 0 1440 1024" fill="none" xmlns="http://www.w3.org/2000/svg">
<path opacity="0.9" d="M-189.996 512H1630" stroke="#31FFFF" stroke-opacity="0.9"/>
<path opacity="0.9" d="M-189.996 256H1630" stroke="#31FFFF" stroke-opacity="0.9"/>
<path opacity="0.9" d="M-190.007 64.0022H1629.99" stroke="#31FFFF" stroke-opacity="0.9"/>
<path opacity="0.9" d="M-190 961.059C520.753 961.059 919.244 961.059 1630 961.059" stroke="#31FFFF" stroke-opacity="0.9"/>
<path opacity="0.9" d="M-189.996 768H1630" stroke="#31FFFF" stroke-opacity="0.9"/>
<path opacity="0.9" d="M-189.996 1024L720.002 0" stroke="#31FFFF" stroke-opacity="0.9"/>
<path opacity="0.9" d="M-189.996 1024L265.003 0" stroke="#31FFFF" stroke-opacity="0.9"/>
<path opacity="0.9" d="M-189.996 512L720.002 0" stroke="#31FFFF" stroke-opacity="0.9"/>
<path opacity="0.9" d="M-189.996 512L720.002 1024" stroke="#31FFFF" stroke-opacity="0.9"/>
<path opacity="0.9" d="M720.001 0.000144958L1630 512" stroke="#31FFFF" stroke-opacity="0.9"/>
<path opacity="0.9" d="M720.001 1024L1630 512" stroke="#31FFFF" stroke-opacity="0.9"/>
<path opacity="0.9" d="M-189.996 0L720.002 1024" stroke="#31FFFF" stroke-opacity="0.9"/>
<path opacity="0.9" d="M-189.996 0L265.003 1024" stroke="#31FFFF" stroke-opacity="0.9"/>
<path opacity="0.9" d="M-189.996 0L1630 1024" stroke="#31FFFF" stroke-opacity="0.9"/>
<path opacity="0.9" d="M-189.996 1024L1630 0.000289917" stroke="#31FFFF" stroke-opacity="0.9"/>
<path opacity="0.9" d="M1630 1024L720.002 0" stroke="#31FFFF" stroke-opacity="0.9"/>
<path opacity="0.9" d="M1630 1024L1175 0" stroke="#31FFFF" stroke-opacity="0.9"/>
<path opacity="0.9" d="M1630 0L720.002 1024" stroke="#31FFFF" stroke-opacity="0.9"/>
<path opacity="0.9" d="M1630 0L1175 1024" stroke="#31FFFF" stroke-opacity="0.9"/>
<path opacity="0.9" d="M720.002 0V1024" stroke="#31FFFF" stroke-opacity="0.9"/>
<path opacity="0.9" d="M1175 0V1024" stroke="#31FFFF" stroke-opacity="0.9"/>
<path opacity="0.9" d="M1402.5 0V1024" stroke="#31FFFF" stroke-opacity="0.9"/>
<path opacity="0.9" d="M37.5033 0V1024" stroke="#31FFFF" stroke-opacity="0.9"/>
<path opacity="0.9" d="M265.003 0V1024" stroke="#31FFFF" stroke-opacity="0.9"/>
</svg>
